<mxfile host="app.diagrams.net" modified="2022-07-21T17:12:06.875Z" agent="5.0 (Windows NT 10.0; Win64; x64) AppleWebKit/537.36 (KHTML, like Gecko) Chrome/103.0.5060.134 Safari/537.36" etag="ImYmmh8vJXR8vlU3Ymhk" version="20.1.3" type="github">
  <diagram id="Fmc8TGQid-nYDSHVtyvv" name="PÃ gina-1">
    <mxGraphModel dx="1102" dy="586" grid="0" gridSize="10" guides="1" tooltips="1" connect="1" arrows="1" fold="1" page="1" pageScale="1" pageWidth="1169" pageHeight="827" math="0" shadow="0">
      <root>
        <mxCell id="0" />
        <mxCell id="1" parent="0" />
        <mxCell id="LGba17AcoOO2xGvBsgM_-1" value="Guerra" style="swimlane;childLayout=stackLayout;horizontal=1;startSize=30;horizontalStack=0;rounded=1;fontSize=14;fontStyle=0;strokeWidth=2;resizeParent=0;resizeLast=1;shadow=0;dashed=0;align=center;" parent="1" vertex="1">
          <mxGeometry x="281" y="155" width="160" height="92" as="geometry" />
        </mxCell>
        <mxCell id="LGba17AcoOO2xGvBsgM_-2" value="- &lt;u&gt;id&lt;/u&gt;&lt;br&gt;- statYear&lt;br&gt;- finalYear" style="align=left;strokeColor=none;fillColor=none;spacingLeft=4;fontSize=12;verticalAlign=top;resizable=0;rotatable=0;part=1;html=1;" parent="LGba17AcoOO2xGvBsgM_-1" vertex="1">
          <mxGeometry y="30" width="160" height="62" as="geometry" />
        </mxCell>
        <mxCell id="gZV5aAu9wN1C4oIyZdUu-1" value="pais" style="swimlane;childLayout=stackLayout;horizontal=1;startSize=30;horizontalStack=0;rounded=1;fontSize=14;fontStyle=0;strokeWidth=2;resizeParent=0;resizeLast=1;shadow=0;dashed=0;align=center;" parent="1" vertex="1">
          <mxGeometry x="491" y="467" width="160" height="81" as="geometry" />
        </mxCell>
        <mxCell id="gZV5aAu9wN1C4oIyZdUu-2" value="- &lt;u&gt;idPais&lt;/u&gt;&lt;br&gt;- nombre" style="align=left;strokeColor=none;fillColor=none;spacingLeft=4;fontSize=12;verticalAlign=top;resizable=0;rotatable=0;part=1;fontStyle=0;html=1;" parent="gZV5aAu9wN1C4oIyZdUu-1" vertex="1">
          <mxGeometry y="30" width="160" height="51" as="geometry" />
        </mxCell>
        <mxCell id="gZV5aAu9wN1C4oIyZdUu-3" value="participa" style="rhombus;whiteSpace=wrap;html=1;fontSize=12;" parent="1" vertex="1">
          <mxGeometry x="529" y="189" width="86" height="58" as="geometry" />
        </mxCell>
        <mxCell id="gZV5aAu9wN1C4oIyZdUu-4" value="Bando" style="swimlane;childLayout=stackLayout;horizontal=1;startSize=30;horizontalStack=0;rounded=1;fontSize=14;fontStyle=0;strokeWidth=2;resizeParent=0;resizeLast=1;shadow=0;dashed=0;align=center;html=1;" parent="1" vertex="1">
          <mxGeometry x="491" y="278" width="160" height="76" as="geometry" />
        </mxCell>
        <mxCell id="gZV5aAu9wN1C4oIyZdUu-5" value="&lt;div&gt;- &lt;u&gt;idBando&lt;/u&gt;&lt;br&gt;&lt;/div&gt;&lt;div&gt;- esGanador&lt;/div&gt;&lt;div&gt;&lt;br&gt;&lt;/div&gt;" style="align=left;strokeColor=none;fillColor=none;spacingLeft=4;fontSize=12;verticalAlign=top;resizable=0;rotatable=0;part=1;html=1;" parent="gZV5aAu9wN1C4oIyZdUu-4" vertex="1">
          <mxGeometry y="30" width="160" height="46" as="geometry" />
        </mxCell>
        <mxCell id="gZV5aAu9wN1C4oIyZdUu-9" value="" style="endArrow=none;html=1;rounded=0;fontSize=12;" parent="1" source="LGba17AcoOO2xGvBsgM_-2" target="gZV5aAu9wN1C4oIyZdUu-3" edge="1">
          <mxGeometry relative="1" as="geometry">
            <mxPoint x="464" y="253" as="sourcePoint" />
            <mxPoint x="527" y="239" as="targetPoint" />
          </mxGeometry>
        </mxCell>
        <mxCell id="gZV5aAu9wN1C4oIyZdUu-10" value="" style="endArrow=none;html=1;rounded=0;fontSize=12;" parent="1" source="euNnZXBOg8K8hVtaQWHb-5" target="gZV5aAu9wN1C4oIyZdUu-1" edge="1">
          <mxGeometry relative="1" as="geometry">
            <mxPoint x="464" y="253" as="sourcePoint" />
            <mxPoint x="490" y="512" as="targetPoint" />
          </mxGeometry>
        </mxCell>
        <mxCell id="gZV5aAu9wN1C4oIyZdUu-12" value="" style="endArrow=none;html=1;rounded=0;fontSize=12;" parent="1" source="gZV5aAu9wN1C4oIyZdUu-3" edge="1" target="gZV5aAu9wN1C4oIyZdUu-4">
          <mxGeometry relative="1" as="geometry">
            <mxPoint x="464" y="253" as="sourcePoint" />
            <mxPoint x="568" y="347" as="targetPoint" />
          </mxGeometry>
        </mxCell>
        <mxCell id="O3yVHTVg8tJeKJSUMgZx-1" value="&lt;b&gt;DIAGRAMA EJERCICIO 4&lt;/b&gt;" style="text;html=1;align=center;verticalAlign=middle;resizable=0;points=[];autosize=1;strokeColor=none;fillColor=none;" parent="1" vertex="1">
          <mxGeometry x="496" y="46" width="152" height="26" as="geometry" />
        </mxCell>
        <mxCell id="O3yVHTVg8tJeKJSUMgZx-2" value="&lt;b&gt;1:1&lt;/b&gt;" style="text;html=1;align=center;verticalAlign=middle;resizable=0;points=[];autosize=1;strokeColor=none;fillColor=none;" parent="1" vertex="1">
          <mxGeometry x="449" y="193" width="35" height="26" as="geometry" />
        </mxCell>
        <mxCell id="O3yVHTVg8tJeKJSUMgZx-6" value="&lt;b&gt;n:m&lt;/b&gt;" style="text;html=1;align=center;verticalAlign=middle;resizable=0;points=[];autosize=1;strokeColor=none;fillColor=none;" parent="1" vertex="1">
          <mxGeometry x="529" y="252" width="40" height="26" as="geometry" />
        </mxCell>
        <mxCell id="AzGyrock-Ndw087T-OnB-1" value="" style="endArrow=none;dashed=1;html=1;rounded=0;fontSize=18;" parent="1" source="euNnZXBOg8K8hVtaQWHb-3" target="gZV5aAu9wN1C4oIyZdUu-2" edge="1">
          <mxGeometry width="50" height="50" relative="1" as="geometry">
            <mxPoint x="769.7232704402516" y="354" as="sourcePoint" />
            <mxPoint x="630" y="281" as="targetPoint" />
          </mxGeometry>
        </mxCell>
        <mxCell id="euNnZXBOg8K8hVtaQWHb-2" value="Independencia" style="swimlane;childLayout=stackLayout;horizontal=1;startSize=30;horizontalStack=0;rounded=1;fontSize=14;fontStyle=0;strokeWidth=2;resizeParent=0;resizeLast=1;shadow=0;dashed=0;align=center;html=1;" vertex="1" parent="1">
          <mxGeometry x="242" y="465.5" width="160" height="84" as="geometry" />
        </mxCell>
        <mxCell id="euNnZXBOg8K8hVtaQWHb-3" value="&lt;div&gt;- &lt;u&gt;id&lt;/u&gt;&lt;/div&gt;&lt;div&gt;&lt;span style=&quot;background-color: initial;&quot;&gt;- startYear&lt;/span&gt;&lt;/div&gt;&lt;div&gt;&lt;span style=&quot;background-color: initial;&quot;&gt;- finalYear&lt;/span&gt;&lt;/div&gt;&lt;div&gt;&lt;br&gt;&lt;/div&gt;" style="align=left;strokeColor=none;fillColor=none;spacingLeft=4;fontSize=12;verticalAlign=top;resizable=0;rotatable=0;part=1;html=1;" vertex="1" parent="euNnZXBOg8K8hVtaQWHb-2">
          <mxGeometry y="30" width="160" height="54" as="geometry" />
        </mxCell>
        <mxCell id="euNnZXBOg8K8hVtaQWHb-5" value="interviene" style="rhombus;whiteSpace=wrap;html=1;fontSize=12;" vertex="1" parent="1">
          <mxGeometry x="528" y="379" width="86" height="58" as="geometry" />
        </mxCell>
        <mxCell id="euNnZXBOg8K8hVtaQWHb-6" value="" style="endArrow=none;html=1;rounded=0;fontSize=12;" edge="1" parent="1" source="gZV5aAu9wN1C4oIyZdUu-5" target="euNnZXBOg8K8hVtaQWHb-5">
          <mxGeometry relative="1" as="geometry">
            <mxPoint x="700.3823442574549" y="430.09506938293475" as="sourcePoint" />
            <mxPoint x="636.3170731707316" y="477" as="targetPoint" />
          </mxGeometry>
        </mxCell>
        <mxCell id="euNnZXBOg8K8hVtaQWHb-7" value="fechaEntrada" style="ellipse;whiteSpace=wrap;html=1;" vertex="1" parent="1">
          <mxGeometry x="657" y="365" width="87" height="34" as="geometry" />
        </mxCell>
        <mxCell id="euNnZXBOg8K8hVtaQWHb-8" value="fechaSalida" style="ellipse;whiteSpace=wrap;html=1;" vertex="1" parent="1">
          <mxGeometry x="670" y="403" width="87" height="34" as="geometry" />
        </mxCell>
        <mxCell id="euNnZXBOg8K8hVtaQWHb-10" value="" style="endArrow=none;html=1;rounded=0;fontSize=12;" edge="1" parent="1" source="euNnZXBOg8K8hVtaQWHb-7" target="euNnZXBOg8K8hVtaQWHb-5">
          <mxGeometry relative="1" as="geometry">
            <mxPoint x="581" y="364" as="sourcePoint" />
            <mxPoint x="581.0000000000002" y="389.0000000000001" as="targetPoint" />
          </mxGeometry>
        </mxCell>
        <mxCell id="euNnZXBOg8K8hVtaQWHb-11" value="" style="endArrow=none;html=1;rounded=0;fontSize=12;" edge="1" parent="1" source="euNnZXBOg8K8hVtaQWHb-8" target="euNnZXBOg8K8hVtaQWHb-5">
          <mxGeometry relative="1" as="geometry">
            <mxPoint x="671.6969296931397" y="399.68377629838824" as="sourcePoint" />
            <mxPoint x="614.1356314763518" y="411.3472863445162" as="targetPoint" />
          </mxGeometry>
        </mxCell>
        <mxCell id="euNnZXBOg8K8hVtaQWHb-12" value="&lt;b&gt;1:n&lt;/b&gt;" style="text;html=1;align=center;verticalAlign=middle;resizable=0;points=[];autosize=1;strokeColor=none;fillColor=none;" vertex="1" parent="1">
          <mxGeometry x="573" y="441" width="36" height="26" as="geometry" />
        </mxCell>
        <mxCell id="euNnZXBOg8K8hVtaQWHb-13" value="&lt;b&gt;1:n&lt;/b&gt;" style="text;html=1;align=center;verticalAlign=middle;resizable=0;points=[];autosize=1;strokeColor=none;fillColor=none;" vertex="1" parent="1">
          <mxGeometry x="568" y="354" width="36" height="26" as="geometry" />
        </mxCell>
      </root>
    </mxGraphModel>
  </diagram>
</mxfile>
